<?xml version="1.0" encoding="utf-8"?>
<!-- Generator: Adobe Illustrator 25.4.1, SVG Export Plug-In . SVG Version: 6.00 Build 0)  -->
<svg version="1.1" id="Layer_1" xmlns="http://www.w3.org/2000/svg" xmlns:xlink="http://www.w3.org/1999/xlink" x="0px" y="0px"
	 viewBox="0 0 304.2 305.1" style="enable-background:new 0 0 304.2 305.1;" xml:space="preserve">
<style type="text/css">
	.st0{fill:#518FD8;}
</style>
<g>
	<g id="Layer_2_00000116955142899254588860000010962565887771356082_">
		<g id="Layer_1-2">
			<path class="st0" d="M81.4,36.5c8.6,0.3,15-3.2,19.5-10.6s11.6-9.5,19.3-6s15.1,2.5,21.5-3.3c6.8-6,13.8-6.1,20.6-0.2
				s14.3,7,22.4,3.2c6.7-3.3,14.8-0.8,18.4,5.7c4.5,7.9,11.2,11.4,20.2,11.1c9.7-0.3,14.4,3.5,16.8,13.1c2,8.2,7.4,12.9,15.4,14.9
				c8.6,2.1,12.6,7.6,12,16.3c-0.7,8.8,2.6,15.5,10.3,20.1c7.2,4.3,9.4,11.1,6.1,18.9c-3.6,8.5-2.4,16,3.8,22.9
				c5.1,5.4,5.1,13.9,0,19.3c-6.2,7-7.4,14.6-3.6,23.1c3.1,7.1,0.8,14.5-5.8,18.4c-8.3,4.8-11.6,11.8-10.6,21.1
				c0.8,7.3-4.1,14-11.3,15.4c-9.1,1.8-14.5,7.2-16.4,16.3c-1.6,7.4-7.1,12.1-14.6,11.8c-10.1-0.4-17.7,2.8-22.8,12
				c-3.3,6-11.3,7.9-17.6,4.9c-8.4-3.9-16-2.6-22.9,3.4c-6.1,5.3-13.4,5.5-19.4,0.2c-7.2-6.2-14.8-7.5-23.5-3.5
				c-6.6,3-14.5,0.4-17.9-6c-4.4-7.9-11.1-11.3-20-11.1c-9.7,0.2-14.5-3.4-16.9-12.7c-2.1-8.4-7.3-13.6-15.9-15.3
				c-7.7-1.6-12.5-7.7-11.7-15.6c0.9-9.6-2.7-16.4-10.9-21.1c-6.1-3.5-8.6-11.1-5.8-17.5c4.1-9,2.8-16.9-3.8-24.2
				c-4.7-5.2-4.7-13.1,0-18.3c6.5-7.2,7.9-15,3.9-24c-3.1-7.1-0.6-14.2,6-18.1c7.8-4.6,11.3-11.2,10.5-20.3
				c-0.8-8.3,3.6-14.2,11.7-16.1S62,58,64.1,49.7C66.6,39.9,71.2,36.3,81.4,36.5z M38.6,222.7c-0.5,9.8,2.6,13.9,12.2,16.4
				c7.6,2,12.7,6.7,14.8,14.4c3,10.8,6,13.1,17.3,13.1c8.6,0,15,3.6,19.3,11c3.8,6.6,10,8.9,17,5.9c9.2-3.9,17.1-2.3,24.5,4.1
				c5.2,4.5,11.9,4.4,17-0.1c7.5-6.6,15.7-8.1,25-3.9c6.3,2.8,12.2,1.3,15.6-4.4c5.7-9.6,13.8-13.1,24.6-12.8
				c6.6,0.2,11-3.6,12.5-10.1c2.2-9.6,7.7-15.5,17.4-17.8c7.6-1.8,11.4-7.2,10.6-14.8c-0.9-9.4,2.8-16.5,10.9-21.3
				c6.4-3.8,8.6-10.1,5.7-16.9c-3.8-8.9-2.7-16.8,3.6-24.1c5.3-6.2,5.2-12.2-0.1-18.4c-6.1-7.1-7.3-14.8-3.8-23.4
				c3.1-7.6,1.2-13.3-5.8-17.7c-7.3-4.6-11.3-11.1-10.7-19.8c0.7-9.4-2.5-14.2-11.6-16.5c-8.3-2.1-13.6-7.3-15.7-15.7
				c-2.3-9.1-6.3-12-15.9-11.9c-8.5,0.1-15.4-3.1-19.9-10.6s-10.3-9.4-18.6-6s-15.9,2.1-22.7-3.9c-6-5.3-12.7-5.4-18.6-0.2
				c-7.1,6.3-14.9,7.6-23.6,3.8c-7.3-3.2-13.3-1.2-17.5,5.7C97.4,34.6,90.6,38.2,81.5,38S68.3,41,66,50c-2,7.8-6.8,13.1-14.6,15.3
				c-10.5,2.8-13.2,6.2-12.8,17.1c0.3,8.3-3.1,14.6-10.1,19c-7.6,4.8-9.5,10.3-6.2,18.6s2,16-3.9,22.8c-5.3,6.1-5.5,12.5-0.2,18.6
				c6.2,7.2,7.4,15.1,3.7,23.9c-3,6.9-0.8,13.3,5.6,17.1C35.4,207,39.1,213.7,38.6,222.7z"/>
			<path class="st0" d="M91.4,29.4"/>
			<path class="st0" d="M261.3,82.6c-0.1,10,3.7,18,12.4,23.2c5.5,3.3,6.8,7.3,4.3,13.2c-4,9.6-2.6,18.7,4.2,26.6
				c4.3,5,4.1,9.2-0.1,14.1c-6.6,7.8-8.1,16.7-4.2,26.1c2.6,6.2,1.1,10.3-4.5,13.8c-8.6,5.3-12.7,13.3-11.9,23.4
				c0.5,6.6-1.9,10.2-8.5,11.8c-10.1,2.4-16.5,9.1-18.9,19.2c-1.4,6-4.6,8.3-10.9,7.9c-10.4-0.6-19.2,3.1-24.7,12.5
				c-3.3,5.7-7.3,6.9-13.3,4.4c-9.9-4.2-19.1-2.5-27.1,4.6c-4.3,3.8-8.2,3.6-12.4-0.1c-8.3-7.3-17.7-8.7-27.9-4.3
				c-5.1,2.2-9,1.2-11.9-3.6c-5.7-9.6-14.2-14-25.3-13.1c-5.9,0.5-9.2-2-10.5-7.8c-2.4-10.6-9.2-17.1-19.7-19.6
				c-5.6-1.4-8.1-4.4-7.6-10.3c0.9-10.9-3.3-19.5-12.9-25.2c-4.9-2.9-6.2-6.8-4-12c4.4-10.3,2.7-19.7-4.5-28.1
				c-3.6-4.2-3.6-8.3,0.1-12.5c7.4-8.5,9-17.9,4.5-28.3c-2.2-5.1-1-9,3.8-11.9c9.4-5.6,13.9-13.9,13-24.8c-0.5-6.4,2.1-9.6,8.3-11.1
				c10.8-2.6,17-9.8,19.3-20.4c1.2-5.3,4.7-7.5,9.9-6.9c10.7,1.2,19-2.8,24.7-11.8c3.7-5.8,7.6-7.3,14.1-4.5
				c9.2,4,18.2,2.4,25.8-4.2c5-4.4,9.2-4.4,14.2,0c7.9,7,17.1,8.1,26.8,4c5.6-2.4,9.4-1.2,12.6,4c5.9,9.7,14.7,13.8,26,12.6
				c4.4-0.5,7.8,1.5,8.8,5.7c2.7,12.3,10,19.5,22.3,22.4C261.4,72.6,262.1,77.4,261.3,82.6z M221.1,260.4c5.2,0.5,9.7,0.6,11-5.1
				c2.8-12.2,10.1-19.7,22.4-22.4c3.7-0.8,5.8-3.4,5.4-7.3c-1.3-12.5,3.5-21.8,14.3-28.2c3.6-2.1,4.5-5.2,2.9-9
				c-4.8-11.3-3.3-21.6,4.9-30.8c2.8-3.1,2.7-6.5-0.1-9.6c-8-9.1-9.6-19.2-4.9-30.4c1.7-4.1,0.8-7.2-3.1-9.6
				c-10.5-6.3-15.1-15.5-13.9-27.7c0.4-4.1-1.5-6.8-5.5-7.7c-11.9-2.6-19.4-9.8-22.1-21.7c-1-4.5-3.7-6.3-8.1-5.9
				c-12.1,1.1-21.2-3.8-27.4-14c-2.4-4-5.6-4.9-9.7-3c-11.3,4.9-21.4,3.2-30.5-5.1c-3-2.7-6.2-2.8-9.2-0.1
				c-9.2,8.4-19.5,10.2-30.9,5.1c-3.9-1.7-7.1-0.9-9.3,3c-6,10.4-15.2,15-27.1,14.1c-4.8-0.4-7.5,1.5-8.6,6.3
				c-2.4,11-9.3,18.3-20.4,20.9c-5.9,1.4-7.4,4.7-7,10.3c0.8,10.4-3.4,18.8-12.2,24.3c-5.5,3.4-6.5,6.9-4.2,12.8
				c3.9,9.6,2.4,19-4.5,26.9c-3.9,4.5-4,8.1-0.1,12.6c7.1,8.2,8.5,17.6,4.4,27.5c-2.3,5.5-1.1,8.9,4,12c9,5.7,13.5,14.1,12.5,24.9
				c-0.5,6,2,8.8,7.6,10.1c10.1,2.5,16.9,9.1,19.3,19.2c1.5,6.2,4.6,8.2,10.8,7.8c10.7-0.7,19.1,3.8,24.7,13
				c2.8,4.7,6.1,5.9,11.2,3.7c10.4-4.4,20.1-2.9,28.6,4.6c4,3.5,7.4,3.4,11.4-0.1c8.4-7.3,17.9-8.9,28.1-4.7
				c5.3,2.2,8.7,1.4,11.7-3.6C202.9,264.5,211.3,260.5,221.1,260.4z"/>
		</g>
	</g>
	<g>
		<g>
			<path class="st0" d="M240.9,138.3c4.4-3.6,9.6-6.3,13.4-10.6c0.1-0.2,0.4-0.1,0.5-0.2c0.1,0.3,0.1,0.5,0.1,0.8
				c-0.3,4.4,0,8.8,0.8,13.2c0.9,5.1,0.4,9.7-3.8,12.9c-3.4,2.6-7.6,2.2-11.6-1c-3.2-2.5-4.1-6.7-2.2-11.2
				C238.6,140.8,239.6,139.4,240.9,138.3z M243.2,141.5c-2.6,2.5-3.4,6.4-1.6,9.1c1.7,2.7,4.3,3.9,7.3,3.6c3.2-0.4,5.8-3.4,5.8-7.1
				c0-4.8-1.7-9.6-0.7-14.4C251.1,136.5,246.5,138.3,243.2,141.5z"/>
		</g>
		<g>
			<g>
				<path class="st0" d="M57,181c1.8-5.5,3.7-11,5.6-16.6c3.2-9.1,6.5-18.2,9.6-27.3c0.6-1.7,1.7-2.1,3.3-2.1
					c3.8-0.1,9.5,3.8,10.9,7.2c0.7,1.8,0.2,3.4-0.6,5.1c-3.2,6.8-6.4,13.6-9.3,20.5c-1.8,4.3-3.2,8.8-4.6,13.3
					c-0.5,1.5-0.6,3-0.6,4.5c0,2.8,0.8,3.4,3.2,1.9c2.3-1.4,4.6-3,6.5-4.9c6.8-6.7,11.7-14.6,16.8-22.5c4.4-6.7,6.6-14.3,9.2-21.8
					c1.2-3.4,2.6-4.3,6-3c2.1,0.8,4.3,2.1,6,3.5c3.1,2.5,3.5,4.8,1.8,8.5c-4.8,10.6-9.6,21.1-14.4,31.6c-1.2,2.7-2.1,5.4-3.1,8.2
					c-0.2,0.4,0.1,0.9,0.1,1.4c0.5-0.1,1.1,0.1,1.4-0.2c2.5-1.8,5.2-3.6,7.3-5.7c12.3-12.3,23.1-25.7,31.9-40.5
					c1.2-2.1,2.1-4.4,2.9-6.7c0.7-2,1.8-3.5,3.9-4.4c4.4-2.1,8.6-4.4,13-6.4c2.2-1,3.6-2.3,4.5-4.4c2.5-6.4,5.1-12.7,7.6-19.2
					c1.2-3,1.4-3.1,4.5-2.6c3.4,0.6,6.1,2.3,8.5,4.6c1.8,1.8,2.5,3.8,1.2,6.2c-1,2.1-2,4.1-2.9,6.2c-0.6,1.3-0.3,1.8,1.3,1.7
					c4.3-0.5,8.7-1,13-1.4c2.6-0.2,5.2-0.2,7.9-0.1c2,0.1,2.6,1,1.9,2.7c-0.9,2.1-2.5,4.4-6.4,4.1c-6.8-0.6-13.4-0.1-20,1.3
					c-1.4,0.3-2.3,0.9-2.9,2.1c-8.3,15.6-16.9,30.9-23.2,47.4c-0.9,2.4-1.7,4.8-2.2,7.3c-0.4,2.1-0.4,4.3-0.4,6.4
					c0,1.1,0.8,1.7,1.9,1.1c2.2-1.3,4.6-2.5,6.6-4.1c4.9-4.1,8.7-9.1,12.2-14.4c4.1-6.4,8.1-12.7,12.2-19.1c0.8-1.2,1.3-2.1,0.4-3.8
					c-0.7-1.3-0.7-3.2-0.2-4.7c0.7-2.4,2-4.7,3.2-6.9c1.7-3.1,3.7-6.1,5.4-9.3c0.6-1.1,1.3-1.5,2.5-0.8c1.6,0.9,3.3,1.7,4.8,2.7
					c3.3,2.4,3.9,5.3,1.7,8.7c-1.4,2.1-2.9,4.2-4.5,6.3c-0.2,0.4-0.3,0.8-0.5,1.3c0.5-0.1,1,0,1.5-0.2c6.5-1.7,12.5-4.7,18.4-7.8
					c2.5-1.3,4.7-1,7.7,1.3c2.2,1.7,2.6,2.7,1.2,5.6c-1.5,2.9-3.3,5.7-5.3,8.4c-4.4,5.7-9.2,11.1-13.5,16.9c-2.8,3.7-5,7.7-7.3,11.6
					c-1,1.8-1.8,4.4,0.2,6c2,1.5,7.2,0.5,9.1-0.7c5.4-3,9-5.6,14.9-13.6c2.1-2.9,4-6,5.9-9c0.5-0.8,0.9-1.5,1.5-2.2
					c1-1,3.1-0.8,4.4,0.2c1.3,0.9,0.8,1.9,0.2,3c-4.8,8.2-10,16.1-17.2,22.6c-5.7,5.1-16.4,9.1-24.4,9.7c-6.1,0.5-11-2.3-12.2-7.4
					c-0.5-2.1-0.3-4.6,0.2-6.7c1.2-5.1,3.8-9.7,7-13.9c4.5-6.1,9.2-12,13.9-18c0.3-0.4,0.6-0.8,0.8-1.3c-0.6-0.1-1.2-0.3-1.7-0.2
					c-3,0.4-6,0.8-8.9,1.4c-1.1,0.2-2.3,1.1-2.9,2.1c-3.5,5.2-6.8,10.6-10.3,15.7c-3.7,5.5-7.6,11-11.8,16.2c-2.4,3-5.5,5.4-8.4,8
					c-3.3,2.8-7.3,3.9-11.6,4.3c-6.4,0.5-10.3-2.7-10.9-8.9c-0.5-4.1,0.4-8,1.4-12c2.5-9.7,6.4-18.7,11-27.6c2.5-5,5.2-10,7.9-14.9
					c0.2-0.5,0.3-1.1,0.4-1.7c-0.6,0.1-1.3,0.1-1.7,0.3c-2,0.9-4,1.9-6,2.9c-1.4,0.7-2.9,1.3-4.2,1.9c0.6,1.3,1.3,2.6,2,3.9
					c1,2,1,3.8-0.4,5.7c-9.1,12.7-18.2,25-29.3,35.7c-4.5,4.4-9.8,8.1-14.9,11.7c-2.5,1.8-5.8,2.7-8.7,4.1c-1.6,0-3.2,0-4.8,0
					c-3.8-1.6-6.8-3.8-6.4-8.4c0.1-1.1-0.1-2.4-0.2-3.6c-1,0.8-2,1.5-2.9,2.5c-3.5,3.8-7.5,6.7-12.6,8c-7.7,1.9-12.2,0.5-14.8-6.7
					C56.3,186.1,56,183.9,57,181z"/>
			</g>
		</g>
	</g>
</g>
</svg>
