<svg xmlns="http://www.w3.org/2000/svg" viewBox="0 0 199.71 98.7"><defs><style>.cls-1{fill:#518fd8;}</style></defs><g id="Layer_2" data-name="Layer 2"><g id="Layer_1-2" data-name="Layer 1"><path class="cls-1" d="M184.52,40c4.36-3.64,9.63-6.29,13.38-10.63.11-.16.35-.14.52-.24a2.06,2.06,0,0,1,.11.76,52.25,52.25,0,0,0,.79,13.17c.94,5.07.37,9.71-3.77,12.9-3.38,2.62-7.56,2.17-11.55-1-3.24-2.49-4.1-6.75-2.18-11.21A8.86,8.86,0,0,1,184.52,40Zm2.27,3.12c-2.56,2.46-3.36,6.43-1.63,9.11a7.33,7.33,0,0,0,7.31,3.58c3.24-.37,5.79-3.44,5.8-7.15,0-4.78-1.69-9.63-.73-14.38C194.75,38.23,190.16,40,186.79,43.16Z"/><path class="cls-1" d="M.61,82.69c1.83-5.52,3.65-11,5.56-16.55C9.35,57,12.69,48,15.79,38.86c.56-1.69,1.67-2.15,3.26-2.15,3.82-.07,9.54,3.84,10.89,7.21.72,1.84.16,3.45-.63,5-3.18,6.82-6.44,13.64-9.3,20.54-1.83,4.29-3.18,8.81-4.61,13.33a17.19,17.19,0,0,0-.64,4.52c0,2.84.79,3.38,3.18,1.92a33.52,33.52,0,0,0,6.52-4.9c6.84-6.67,11.69-14.64,16.77-22.46,4.38-6.74,6.6-14.32,9.23-21.76,1.19-3.37,2.62-4.29,6-3a22.53,22.53,0,0,1,6,3.53c3.1,2.53,3.5,4.83,1.83,8.5C59.6,59.78,54.75,70.28,50,80.85c-1.19,2.68-2.15,5.44-3.1,8.2-.16.38.08.92.08,1.38.48-.08,1.11.08,1.43-.23a65.39,65.39,0,0,0,7.31-5.75A205.83,205.83,0,0,0,87.59,44a38.74,38.74,0,0,0,2.86-6.66,7.09,7.09,0,0,1,3.89-4.45c4.38-2.07,8.59-4.44,13-6.43A7.81,7.81,0,0,0,111.76,22c2.46-6.36,5.08-12.72,7.55-19.15,1.19-3,1.35-3.14,4.53-2.61a16.15,16.15,0,0,1,8.51,4.6c1.83,1.76,2.46,3.83,1.19,6.21-1,2.06-2,4.13-2.94,6.2-.64,1.3-.32,1.84,1.27,1.69,4.29-.54,8.67-1,13-1.38a54.41,54.41,0,0,1,7.87-.08c2,.08,2.62,1,1.91,2.68-.88,2.07-2.54,4.37-6.36,4.07a67.38,67.38,0,0,0-20,1.3,3.87,3.87,0,0,0-2.94,2.14C117,43.23,108.34,58.55,102.06,75a47.34,47.34,0,0,0-2.23,7.28,34.36,34.36,0,0,0-.4,6.43c0,1.08.8,1.69,1.91,1.08a46,46,0,0,0,6.6-4.14A61,61,0,0,0,120.1,71.27c4.06-6.36,8.11-12.72,12.25-19.08.79-1.22,1.27-2.14.4-3.75a6.29,6.29,0,0,1-.24-4.68,37.9,37.9,0,0,1,3.18-6.89c1.75-3.14,3.65-6.13,5.4-9.27.64-1.15,1.28-1.46,2.47-.77,1.59.92,3.26,1.69,4.77,2.68,3.26,2.38,3.89,5.29,1.75,8.66-1.35,2.15-2.94,4.22-4.45,6.28a6.56,6.56,0,0,0-.48,1.31,9.68,9.68,0,0,0,1.51-.16c6.52-1.68,12.48-4.67,18.36-7.81,2.47-1.3,4.7-1,7.72,1.3,2.22,1.69,2.62,2.68,1.19,5.59a55.23,55.23,0,0,1-5.33,8.43c-4.37,5.67-9.22,11.11-13.51,16.86a110.55,110.55,0,0,0-7.32,11.65c-1,1.84-1.83,4.44.16,6s7.21.53,9.11-.7c5.43-3,9-5.55,14.92-13.6,2.07-2.91,4-6,5.89-9a13.39,13.39,0,0,1,1.51-2.22c.95-1,3.1-.84,4.37.15s.79,1.92.16,3c-4.77,8.2-10,16.09-17.18,22.61C161,93,150.32,96.94,142.29,97.56c-6.13.53-11-2.3-12.25-7.36a16.13,16.13,0,0,1,.16-6.74c1.19-5.14,3.82-9.66,7-13.95,4.53-6.05,9.22-12,13.91-18a7.08,7.08,0,0,0,.8-1.3,6.63,6.63,0,0,0-1.75-.23c-3,.38-6,.77-8.91,1.38a5.09,5.09,0,0,0-2.94,2.15c-3.5,5.21-6.76,10.57-10.33,15.7-3.74,5.52-7.56,11-11.77,16.17-2.39,3-5.49,5.44-8.43,8-3.26,2.76-7.31,3.91-11.61,4.29-6.36.54-10.25-2.68-10.89-8.89-.48-4.13.4-8,1.43-12,2.47-9.65,6.44-18.69,11-27.58,2.55-5,5.25-10,7.87-14.94a6.48,6.48,0,0,0,.4-1.69,6.07,6.07,0,0,0-1.75.31c-2,.92-4,1.91-6,2.91-1.43.69-2.86,1.3-4.21,1.91.63,1.31,1.27,2.61,2,3.91a5,5,0,0,1-.39,5.67c-9.07,12.72-18.21,25-29.34,35.71a120.37,120.37,0,0,1-15,11.72c-2.54,1.77-5.8,2.69-8.74,4.06H37.74C33.92,97.1,31,95,31.3,90.35a27.72,27.72,0,0,0-.16-3.6c-1,.84-2,1.53-2.86,2.45-3.5,3.76-7.48,6.75-12.65,8C7.92,99.16,3.47,97.71.85,90.51A11,11,0,0,1,.61,82.69Z"/></g></g></svg>